<svg xmlns="http://www.w3.org/2000/svg" xmlns:xlink="http://www.w3.org/1999/xlink" viewBox="0 0 602.12 596.86">
    <defs>
        <style>
            .cls-1{isolation:isolate;}.cls-13,.cls-2,.cls-22,.cls-7,.cls-8{opacity:0.7;}.cls-17,.cls-2,.cls-21,.cls-3,.cls-33,.cls-35,.cls-6{mix-blend-mode:overlay;}.cls-11,.cls-12,.cls-14,.cls-15,.cls-17,.cls-18,.cls-19,.cls-25,.cls-26,.cls-33,.cls-36,.cls-37,.cls-4,.cls-5,.cls-6,.cls-8{fill:none;stroke-miterlimit:10;}.cls-11,.cls-12,.cls-14,.cls-15,.cls-17,.cls-19,.cls-4,.cls-5,.cls-6,.cls-8{stroke:#3bfffe;}.cls-11,.cls-12,.cls-18,.cls-4,.cls-6,.cls-8{stroke-width:0.9px;}.cls-5{stroke-width:0.85px;}.cls-10,.cls-16,.cls-7,.cls-9{fill:#3bfffe;}.cls-10,.cls-11,.cls-12,.cls-13,.cls-14,.cls-15,.cls-19,.cls-22,.cls-23,.cls-24,.cls-25,.cls-26,.cls-37,.cls-7,.cls-8,.cls-9{mix-blend-mode:soft-light;}.cls-10,.cls-35{opacity:0.5;}.cls-12,.cls-24,.cls-38,.cls-39,.cls-40,.cls-41{opacity:0.8;}.cls-13{fill:#59bdeb;}.cls-14{stroke-width:1.8px;}.cls-15{stroke-width:1.25px;}.cls-17,.cls-19{stroke-width:1.34px;}.cls-18{stroke:#59bdeb;}.cls-20,.cls-21,.cls-22,.cls-23,.cls-24{fill:#fff;}.cls-25,.cls-26,.cls-33,.cls-36,.cls-37{stroke:#fff;}.cls-25,.cls-33{stroke-width:0.97px;}.cls-26{stroke-width:0.9px;}.cls-27{fill:url(#linear-gradient);}.cls-28{fill:url(#linear-gradient-2);}.cls-29{fill:url(#linear-gradient-3);}.cls-30{fill:url(#linear-gradient-4);}.cls-31{fill:url(#linear-gradient-5);}.cls-32{fill:url(#linear-gradient-6);}.cls-34{fill:url(#linear-gradient-7);}.cls-36{stroke-width:0.99px;}.cls-37{stroke-width:0.93px;}.cls-38{fill:url(#radial-gradient);}.cls-39{fill:url(#radial-gradient-2);}.cls-40{fill:url(#radial-gradient-3);}.cls-41{fill:url(#radial-gradient-4);}
        </style>
        <linearGradient id="linear-gradient" x1="395.85" y1="231.25" x2="395.85" y2="561.86"
                        gradientUnits="userSpaceOnUse">
            <stop offset="0" stop-color="#a2ffff"/>
            <stop offset="0.19" stop-color="#91ffff" stop-opacity="0.87"/>
            <stop offset="0.61" stop-color="#66fffe" stop-opacity="0.53"/>
            <stop offset="1" stop-color="#3bfffe" stop-opacity="0.2"/>
        </linearGradient>
        <linearGradient id="linear-gradient-2" x1="541.36" y1="231.25" x2="541.36" y2="561.86"
                        xlink:href="#linear-gradient"/>
        <linearGradient id="linear-gradient-3" x1="253.25" y1="231.25" x2="253.25" y2="561.86"
                        xlink:href="#linear-gradient"/>
        <linearGradient id="linear-gradient-4" x1="251.17" y1="231.25" x2="251.17" y2="561.86"
                        xlink:href="#linear-gradient"/>
        <linearGradient id="linear-gradient-5" x1="395.95" y1="231.25" x2="395.95" y2="561.86"
                        xlink:href="#linear-gradient"/>
        <linearGradient id="linear-gradient-6" x1="543.53" y1="231.25" x2="543.53" y2="561.86"
                        xlink:href="#linear-gradient"/>
        <linearGradient id="linear-gradient-7" x1="190.41" y1="385.41" x2="616.31" y2="385.41"
                        gradientTransform="translate(-159.03 409.43) rotate(-45)" gradientUnits="userSpaceOnUse">
            <stop offset="0" stop-color="#fff"/>
            <stop offset="0.16" stop-color="#e5ffff" stop-opacity="0.87"/>
            <stop offset="0.5" stop-color="#a2ffff" stop-opacity="0.53"/>
            <stop offset="1" stop-color="#3bfffe" stop-opacity="0"/>
        </linearGradient>
        <radialGradient id="radial-gradient" cx="502.16" cy="137.53" r="231.43"
                        gradientTransform="translate(302.57 159.72) scale(0.46)" gradientUnits="userSpaceOnUse">
            <stop offset="0" stop-color="#fff"/>
            <stop offset="1" stop-color="#3bfffe" stop-opacity="0"/>
        </radialGradient>
        <radialGradient id="radial-gradient-2" cx="-147.49" cy="782.12" r="231.45"
                        gradientTransform="translate(275.49 301.32) scale(0.28)" xlink:href="#radial-gradient"/>
        <radialGradient id="radial-gradient-3" cx="914.68" cy="933.07" r="231.41"
                        gradientTransform="translate(222.88 204.68) scale(0.35)" xlink:href="#radial-gradient"/>
        <radialGradient id="radial-gradient-4" cx="186.44" cy="179.7" r="231.41"
                        gradientTransform="translate(206.75 210.22) scale(0.25)" xlink:href="#radial-gradient"/>
    </defs>
    <title>network4</title>
    <g class="cls-1">
        <g id="Objects">
            <g class="cls-2">
                <g class="cls-3">
                    <path class="cls-4"
                          d="M542.27,261.12a203.43,203.43,0,1,1-143.84-59.58A202.06,202.06,0,0,1,542.27,261.12ZM255.12,548.28c79,79,207.6,79,286.62,0s79-207.6,0-286.62-207.6-79-286.62,0S176.09,469.26,255.12,548.28Z"
                          transform="translate(-92.04 -103.85)"/>
                </g>
                <g class="cls-3">
                    <path class="cls-5"
                          d="M580.14,223.26c100.19,100.19,100.19,263.22,0,363.42s-263.23,100.2-363.43,0-100.19-263.23,0-363.42S479.94,123.06,580.14,223.26Zm-361,361c98.84,98.84,259.67,98.84,358.52,0s98.84-259.67,0-358.51-259.67-98.84-358.51,0S120.33,485.38,219.17,584.23Z"
                          transform="translate(-92.04 -103.85)"/>
                </g>
                <path class="cls-6"
                      d="M602.25,608.79A287.87,287.87,0,0,1,525,664l7.36,15.47A306.11,306.11,0,0,0,687.6,503.29l-16.54-4.56A287.14,287.14,0,0,1,602.25,608.79Z"
                      transform="translate(-92.04 -103.85)"/>
                <path class="cls-7"
                      d="M602.25,608.79A287.87,287.87,0,0,1,525,664l7.36,15.47A306.11,306.11,0,0,0,687.6,503.29l-16.54-4.56A287.14,287.14,0,0,1,602.25,608.79Z"
                      transform="translate(-92.04 -103.85)"/>
                <path class="cls-8"
                      d="M627.62,547.66c-16.94,28.1-37.37,50.65-61.19,70.6l11.94,16.48C603.66,613.58,627,589,645,559.19c25-41.49,37.89-87.64,41.7-132.86l-18.77-2.06A287.15,287.15,0,0,1,627.62,547.66Z"
                      transform="translate(-92.04 -103.85)"/>
                <path class="cls-9"
                      d="M126.21,306.92A287.68,287.68,0,0,1,172.56,224l-13.25-10.86A306.24,306.24,0,0,0,94,438.75l16.92-2.93A287.17,287.17,0,0,1,126.21,306.92Z"
                      transform="translate(-92.04 -103.85)"/>
                <path class="cls-10"
                      d="M429.5,121.65l-6.64,35.22A245.17,245.17,0,0,1,643,447.5c14.21,2.65,26.85,4.85,35.16,6A280.87,280.87,0,0,0,429.5,121.65Z"
                      transform="translate(-92.04 -103.85)"/>
                <path class="cls-11"
                      d="M197,203l26.55,25.85A247.25,247.25,0,0,1,388.41,157L387,120A284.22,284.22,0,0,0,197,203Z"
                      transform="translate(-92.04 -103.85)"/>
                <path class="cls-12"
                      d="M420.75,104.32l-4.94,34.89c64.56,2.17,126.32,30.45,169.11,72.4l26-26.43C561.57,136.82,495.21,106.66,420.75,104.32Z"
                      transform="translate(-92.04 -103.85)"/>
                <path class="cls-13"
                      d="M490.66,677.22l-12.51-34.88a247.24,247.24,0,0,1-179.68-7.77l-14.94,33.9A284.21,284.21,0,0,0,490.66,677.22Z"
                      transform="translate(-92.04 -103.85)"/>
                <path class="cls-14"
                      d="M452.31,663.43,445.79,627A247.25,247.25,0,0,1,269.94,589.3l-20.4,30.92A284.23,284.23,0,0,0,452.31,663.43Z"
                      transform="translate(-92.04 -103.85)"/>
                <path class="cls-15"
                      d="M648.66,361.67l-36.12,8.27c11.57,54.44-2,109.23-33.71,154.92L610,540.29C646.52,487.62,662.16,424.44,648.66,361.67Z"
                      transform="translate(-92.04 -103.85)"/>
                <path class="cls-16"
                      d="M397.77,636.72A231.74,231.74,0,0,1,167,416.54h-5.57A237.31,237.31,0,0,0,397.77,642.28Z"
                      transform="translate(-92.04 -103.85)"/>
                <path class="cls-16"
                      d="M161.24,412.51h5.56a231.13,231.13,0,0,1,62.33-165.81l-3.93-3.93A236.63,236.63,0,0,0,161.24,412.51Z"
                      transform="translate(-92.04 -103.85)"/>
                <path class="cls-16" d="M556.68,574.27A231,231,0,0,1,401.8,636.69v5.55a236.44,236.44,0,0,0,158.81-64Z"
                      transform="translate(-92.04 -103.85)"/>
                <path class="cls-16"
                      d="M629.89,416.54a230.89,230.89,0,0,1-67.58,152.31c-.9.89-1.81,1.76-2.71,2.64l3.92,3.93c.91-.88,1.82-1.75,2.72-2.64a236.5,236.5,0,0,0,69.22-156.24Z"
                      transform="translate(-92.04 -103.85)"/>
                <path class="cls-16"
                      d="M401.8,173.25A231.72,231.72,0,0,1,630.05,412.51h5.56A237.28,237.28,0,0,0,401.8,167.69Z"
                      transform="translate(-92.04 -103.85)"/>
                <path class="cls-16"
                      d="M231.9,243.8c.88-.91,1.75-1.82,2.65-2.71a231,231,0,0,1,163.22-67.87v-5.56a236.53,236.53,0,0,0-167.15,69.5c-.9.89-1.77,1.8-2.65,2.71Z"
                      transform="translate(-92.04 -103.85)"/>
                <path class="cls-17"
                      d="M139,435.48l36.85-3.86a247.33,247.33,0,0,1,50.26-172.69l-29.37-22.57A284.2,284.2,0,0,0,139,435.48Z"
                      transform="translate(-92.04 -103.85)"/>
                <path class="cls-4"
                      d="M398.43,109.68a295.3,295.3,0,1,1-208.8,86.49A293.37,293.37,0,0,1,398.43,109.68Zm0,589.48c162.21,0,294.19-132,294.19-294.19s-132-294.19-294.19-294.19S104.24,242.75,104.24,405,236.21,699.16,398.43,699.16Z"
                      transform="translate(-92.04 -103.85)"/>
                <g class="cls-3">
                    <path class="cls-18"
                          d="M596.71,206.68a280.42,280.42,0,1,1-198.28-82.13A278.58,278.58,0,0,1,596.71,206.68ZM200.88,602.52c108.93,108.92,286.17,108.93,395.1,0s108.92-286.17,0-395.1-286.16-108.93-395.09,0S92,493.59,200.88,602.52Z"
                          transform="translate(-92.04 -103.85)"/>
                </g>
                <path class="cls-11"
                      d="M501.75,546.86a153.61,153.61,0,0,1-106.62,34.2L395.6,618c3,.14,6,.22,9,.22A189.19,189.19,0,0,0,527.87,573Z"
                      transform="translate(-92.04 -103.85)"/>
                <path class="cls-11"
                      d="M282.26,293.21c26.13-26.66,59.48-42.75,95.45-48.54l-24.2-46.25c-41.68,8.58-78.94,28.48-108.32,58.47a206.06,206.06,0,0,0-40.35,58.8l47.09,20.43A164.94,164.94,0,0,1,282.26,293.21Z"
                      transform="translate(-92.04 -103.85)"/>
                <path class="cls-19"
                      d="M308.44,290.9c28.67-21.6,62.69-32.11,97.73-32.45L389.79,211c-40.87,2.19-79.14,15.76-111.38,40.06a198,198,0,0,0-46.81,50.11l41.85,26.18A158.91,158.91,0,0,1,308.44,290.9Z"
                      transform="translate(-92.04 -103.85)"/>
                <g class="cls-3">
                    <path class="cls-4"
                          d="M397.89,593.69a188.71,188.71,0,0,1-187.95-179.3H205.4A193.25,193.25,0,0,0,397.89,598.21Z"
                          transform="translate(-92.04 -103.85)"/>
                    <path class="cls-4"
                          d="M205.28,411.11h4.53a188.18,188.18,0,0,1,50.75-135l-3.2-3.2A192.72,192.72,0,0,0,205.28,411.11Z"
                          transform="translate(-92.04 -103.85)"/>
                    <path class="cls-4" d="M527.3,542.83a188,188,0,0,1-126.13,50.83v4.53A192.57,192.57,0,0,0,530.5,546Z"
                          transform="translate(-92.04 -103.85)"/>
                    <path class="cls-4"
                          d="M586.92,414.39a188.12,188.12,0,0,1-55,124c-.73.73-1.47,1.44-2.21,2.15l3.2,3.2,2.21-2.15a192.62,192.62,0,0,0,56.37-127.23Z"
                          transform="translate(-92.04 -103.85)"/>
                    <path class="cls-4"
                          d="M401.17,216.27A188.69,188.69,0,0,1,587,411.11h4.53a193.21,193.21,0,0,0-190.4-199.36Z"
                          transform="translate(-92.04 -103.85)"/>
                    <path class="cls-4"
                          d="M262.82,273.72c.72-.73,1.43-1.47,2.16-2.2A188.07,188.07,0,0,1,397.9,216.25v-4.53a192.61,192.61,0,0,0-136.12,56.6c-.73.73-1.44,1.47-2.15,2.2Z"
                          transform="translate(-92.04 -103.85)"/>
                </g>
            </g>
            <g class="cls-3">
                <path class="cls-20"
                      d="M398.71,543.44a146.71,146.71,0,1,1,103.73-43A145.75,145.75,0,0,1,398.71,543.44Zm0-292.86c-80.59,0-146.16,65.56-146.16,146.15s65.57,146.16,146.16,146.16,146.16-65.57,146.16-146.16S479.3,250.58,398.71,250.58Z"
                      transform="translate(-92.04 -103.85)"/>
            </g>
            <g class="cls-3">
                <path class="cls-20"
                      d="M398.71,593.92c-108.73,0-197.19-88.46-197.19-197.19S290,199.55,398.71,199.55,595.89,288,595.89,396.73,507.44,593.92,398.71,593.92Zm0-391.71c-107.26,0-194.52,87.26-194.52,194.52s87.26,194.52,194.52,194.52S593.23,504,593.23,396.73,506,202.21,398.71,202.21Z"
                      transform="translate(-92.04 -103.85)"/>
            </g>
            <path class="cls-21"
                  d="M190.83,396.73a207.34,207.34,0,0,1,11.25-67.58L190.43,325a220.86,220.86,0,0,0,10.68,169.05L211.87,488A207.06,207.06,0,0,1,190.83,396.73Z"
                  transform="translate(-92.04 -103.85)"/>
            <path class="cls-22"
                  d="M190.83,396.73a207.34,207.34,0,0,1,11.25-67.58L190.43,325a220.86,220.86,0,0,0,10.68,169.05L211.87,488A207.06,207.06,0,0,1,190.83,396.73Z"
                  transform="translate(-92.04 -103.85)"/>
            <path class="cls-22"
                  d="M209.07,440.84c-5.69-23-6.77-44.88-4.8-67.2l-14.49-2.32c-2.11,23.69-1.49,48.12,4.55,72.5,8.41,33.91,25.37,64,46.49,89l10.62-8.53A207,207,0,0,1,209.07,440.84Z"
                  transform="translate(-92.04 -103.85)"/>
            <path class="cls-21"
                  d="M590.12,305.31a207.7,207.7,0,0,1,18.66,65.93L621.07,370a220.72,220.72,0,0,0-81.75-148.35l-7.13,10.12A206.93,206.93,0,0,1,590.12,305.31Z"
                  transform="translate(-92.04 -103.85)"/>
            <path class="cls-23"
                  d="M527.34,557.05l-14.58-21.34A176.8,176.8,0,0,1,252.3,499.77c-8.6,5.89-16.17,11.22-21,14.88a202.54,202.54,0,0,0,296,42.4Z"
                  transform="translate(-92.04 -103.85)"/>
            <path class="cls-23"
                  d="M604.41,397l-26.72.36a178.32,178.32,0,0,1-47.42,120.72l19.61,18.13A204.94,204.94,0,0,0,604.41,397Z"
                  transform="translate(-92.04 -103.85)"/>
            <path class="cls-24"
                  d="M540.64,561.43l-15.28-20.31c-34,31.81-79.94,48.89-123.15,49.31l.24,26.72A203.69,203.69,0,0,0,540.64,561.43Z"
                  transform="translate(-92.04 -103.85)"/>
            <path class="cls-23"
                  d="M212.84,304.94,237,316.34a178.32,178.32,0,0,1,95.58-87.66l-9.66-24.91A205,205,0,0,0,212.84,304.94Z"
                  transform="translate(-92.04 -103.85)"/>
            <path class="cls-25"
                  d="M239.43,292.41l21.92,15.28a178.37,178.37,0,0,1,108.88-70.48l-5.37-26.16A204.92,204.92,0,0,0,239.43,292.41Z"
                  transform="translate(-92.04 -103.85)"/>
            <path class="cls-26"
                  d="M293.19,546.41l14.2-22.63c-33.67-21.86-54.66-56.74-61.81-96.19l-23.76,8C230.05,481.1,254.29,521.29,293.19,546.41Z"
                  transform="translate(-92.04 -103.85)"/>
            <path class="cls-27"
                  d="M280.86,278.22a167.13,167.13,0,0,1,230-5.42l2.84-2.84A171.13,171.13,0,0,0,278,275.39Z"
                  transform="translate(-92.04 -103.85)"/>
            <path class="cls-28"
                  d="M515.81,271.94,513,274.77A166.67,166.67,0,0,1,565.74,391.1h4A170.65,170.65,0,0,0,515.81,271.94Z"
                  transform="translate(-92.04 -103.85)"/>
            <path class="cls-29"
                  d="M231.68,391.1a166.5,166.5,0,0,1,47.15-110.81L276,277.46A170.57,170.57,0,0,0,227.67,391.1Z"
                  transform="translate(-92.04 -103.85)"/>
            <path class="cls-30"
                  d="M274.77,508.87a166.58,166.58,0,0,1-43.2-112.14c0-.91,0-1.82,0-2.73h-4c0,.91,0,1.82,0,2.73a170.54,170.54,0,0,0,44.36,115Z"
                  transform="translate(-92.04 -103.85)"/>
            <path class="cls-31"
                  d="M515.15,516.62A167.1,167.1,0,0,1,276.75,511l-2.84,2.83A171.12,171.12,0,0,0,518,519.45Z"
                  transform="translate(-92.04 -103.85)"/>
            <path class="cls-32"
                  d="M565.81,394c0,.91,0,1.82,0,2.73a166.6,166.6,0,0,1-48.62,117.85l2.83,2.83a170.57,170.57,0,0,0,49.8-120.68c0-.91,0-1.82,0-2.73Z"
                  transform="translate(-92.04 -103.85)"/>
            <path class="cls-33"
                  d="M515.43,248.89l-16.82,20.76A178.31,178.31,0,0,1,561,383.34l26.49-3.47A204.94,204.94,0,0,0,515.43,248.89Z"
                  transform="translate(-92.04 -103.85)"/>
            <path class="cls-34"
                  d="M549.29,547.31a213,213,0,1,1,62.37-150.58A211.56,211.56,0,0,1,549.29,547.31ZM248.69,246.72c-82.72,82.72-82.72,217.31,0,300s217.31,82.72,300,0,82.73-217.31,0-300S331.41,164,248.69,246.72Z"
                  transform="translate(-92.04 -103.85)"/>
            <g class="cls-3">
                <path class="cls-20"
                      d="M398.71,599a202.22,202.22,0,1,1,143-59.23A200.94,200.94,0,0,1,398.71,599Zm0-403.7c-111.09,0-201.48,90.38-201.48,201.47s90.39,201.48,201.48,201.48,201.47-90.38,201.47-201.48S509.8,195.26,398.71,195.26Z"
                      transform="translate(-92.04 -103.85)"/>
            </g>
            <g class="cls-35">
                <path class="cls-36"
                      d="M278.08,275.42a171.07,171.07,0,0,1,235.41-5.55l2.9-2.9a175.17,175.17,0,0,0-241.21,5.55Z"
                      transform="translate(-92.04 -103.85)"/>
                <path class="cls-36"
                      d="M518.57,269l-2.9,2.9a170.56,170.56,0,0,1,54,119.08h4.11A174.7,174.7,0,0,0,518.57,269Z"
                      transform="translate(-92.04 -103.85)"/>
                <path class="cls-36"
                      d="M227.73,391A170.53,170.53,0,0,1,276,277.54l-2.9-2.9A174.54,174.54,0,0,0,223.63,391Z"
                      transform="translate(-92.04 -103.85)"/>
                <path class="cls-36"
                      d="M271.85,511.51a170.44,170.44,0,0,1-44.22-114.78c0-.93,0-1.86,0-2.79h-4.1c0,.93,0,1.86,0,2.79a174.54,174.54,0,0,0,45.41,117.69Z"
                      transform="translate(-92.04 -103.85)"/>
                <path class="cls-36"
                      d="M517.9,519.45a171.05,171.05,0,0,1-244-5.76L271,516.6a175.15,175.15,0,0,0,249.83,5.74Z"
                      transform="translate(-92.04 -103.85)"/>
                <path class="cls-36"
                      d="M569.75,393.94c0,.93,0,1.86,0,2.79A170.53,170.53,0,0,1,520,517.36l2.9,2.9a174.61,174.61,0,0,0,51-123.53c0-.93,0-1.86,0-2.79Z"
                      transform="translate(-92.04 -103.85)"/>
            </g>
            <path class="cls-23"
                  d="M273,373.79a97.42,97.42,0,0,1,32.8-63.3l-16.95-16.4c-1.41,1.28-2.8,2.59-4.16,4a119.83,119.83,0,0,0-35.35,75.76Z"
                  transform="translate(-92.04 -103.85)"/>
            <path class="cls-23"
                  d="M520.5,395.28A122.82,122.82,0,0,1,500,465.85l32.32,10.38a151.84,151.84,0,0,0,12.57-130l-30.65,13.4A121.5,121.5,0,0,1,520.5,395.28Z"
                  transform="translate(-92.04 -103.85)"/>
            <path class="cls-37"
                  d="M515.15,415.74A117.67,117.67,0,0,1,482.33,480l30.27,15.84a145.08,145.08,0,0,0,36-74.75,143.53,143.53,0,0,0-.47-48.15l-32.81,7.34A115.13,115.13,0,0,1,515.15,415.74Z"
                  transform="translate(-92.04 -103.85)"/>
            <g class="cls-3">
                <path class="cls-20"
                      d="M302.74,300.23A136.09,136.09,0,0,1,490,295.81l2.31-2.31a139.35,139.35,0,0,0-191.89,4.42Z"
                      transform="translate(-92.04 -103.85)"/>
                <path class="cls-20"
                      d="M494.06,295.11l-2.31,2.31a135.66,135.66,0,0,1,43,94.73H538A139,139,0,0,0,494.06,295.11Z"
                      transform="translate(-92.04 -103.85)"/>
                <path class="cls-20"
                      d="M262.69,392.15a135.62,135.62,0,0,1,38.4-90.24l-2.31-2.31a138.86,138.86,0,0,0-39.35,92.55Z"
                      transform="translate(-92.04 -103.85)"/>
                <path class="cls-20"
                      d="M297.79,488a135.54,135.54,0,0,1-35.18-91.31c0-.74,0-1.48,0-2.22h-3.26c0,.74,0,1.48,0,2.22a138.89,138.89,0,0,0,36.13,93.63Z"
                      transform="translate(-92.04 -103.85)"/>
                <path class="cls-20"
                      d="M493.53,494.36a136.09,136.09,0,0,1-194.14-4.58l-2.31,2.31a139.34,139.34,0,0,0,198.76,4.57Z"
                      transform="translate(-92.04 -103.85)"/>
                <path class="cls-20"
                      d="M534.78,394.51c0,.74,0,1.48,0,2.22a135.68,135.68,0,0,1-39.6,96l2.31,2.3a138.9,138.9,0,0,0,40.55-98.27c0-.74,0-1.48,0-2.22Z"
                      transform="translate(-92.04 -103.85)"/>
            </g>
            <path class="cls-38" d="M642.66,223.47A107.29,107.29,0,1,1,535.37,116.18,107.3,107.3,0,0,1,642.66,223.47Z"
                  transform="translate(-92.04 -103.85)"/>
            <path class="cls-39" d="M299.17,522a65.29,65.29,0,1,1-65.29-65.29A65.29,65.29,0,0,1,299.17,522Z"
                  transform="translate(-92.04 -103.85)"/>
            <path class="cls-40" d="M627.45,534.06a81.69,81.69,0,1,1-81.68-81.69A81.69,81.69,0,0,1,627.45,534.06Z"
                  transform="translate(-92.04 -103.85)"/>
            <path class="cls-41" d="M311,255.07a57.76,57.76,0,1,1-57.76-57.76A57.76,57.76,0,0,1,311,255.07Z"
                  transform="translate(-92.04 -103.85)"/>
        </g>
    </g>
</svg>